<svg xmlns="http://www.w3.org/2000/svg" viewBox="0 0 520 200.5"><title>Logo.Maodai-5.0</title><g id="4c66349a-73eb-4791-a523-ed098fbe53bd" data-name="背景"><circle cx="420" cy="100" r="100" style="fill:#faa8a9"/><circle cx="260" cy="100.5" r="100" style="fill:#74dbc7"/><circle cx="100" cy="100" r="100" style="fill:#fabc5f"/></g><g id="309344d5-e469-45bf-8c9f-c77e07196499" data-name="文字"><g id="45553a54-ea16-4c2f-803e-1880acb7eaa1" data-name="O"><circle cx="420" cy="100" r="46" style="fill:none;stroke:#fff;stroke-linecap:round;stroke-linejoin:round;stroke-width:20px"/><line x1="420.5" y1="57.5" x2="388.5" y2="127.5" style="fill:none;stroke:#fff;stroke-linecap:round;stroke-linejoin:round;stroke-width:12px"/></g><g id="e306ef09-2772-4376-995d-bc4bfe5eba7b" data-name="A"><polyline points="222 149 260 51 298 149" style="fill:none;stroke:#fff;stroke-linecap:round;stroke-linejoin:round;stroke-width:20px"/><line x1="231.5" y1="124.5" x2="288.5" y2="124.5" style="fill:none;stroke:#fff;stroke-linecap:round;stroke-linejoin:round;stroke-width:12px"/></g><g id="b1874933-9e96-4c16-b5b0-b032c637d365" data-name="M"><line x1="99" y1="74" x2="99" y2="137" style="fill:none;stroke:#fff;stroke-linecap:round;stroke-linejoin:round;stroke-width:7px"/><path d="M122.5,335.5c3.48,6.55,11.52,5.58,16.5-.5,3.77,5.58,10.78,7.56,16.5.5" transform="translate(-40 -200)" style="fill:none;stroke:#fff;stroke-linecap:round;stroke-linejoin:round;stroke-width:7px"/><path d="M96,356c-14-18-17.63-40.43,0-65l-9-33,39,15h25l27-24,4,40c15.62,16.92,10,54-6,67" transform="translate(-40 -200)" style="fill:none;stroke:#fff;stroke-linecap:round;stroke-linejoin:round;stroke-width:20px"/></g></g></svg>